<?xml version="1.0" encoding="iso-8859-1"?>
<!-- Uploaded to: SVG Repo, www.svgrepo.com, Generator: SVG Repo Mixer Tools -->
<svg height="800px" width="800px" version="1.1" id="Layer_1" xmlns="http://www.w3.org/2000/svg" xmlns:xlink="http://www.w3.org/1999/xlink" 
	 viewBox="0 0 447.208 447.208" xml:space="preserve">
<g transform="translate(0 -1020.36)">
	<g shape-rendering="auto" image-rendering="auto" color-rendering="auto" color-interpolation="sRGB">
		<path style="fill:#29A3EC;" d="M183.99,1065.868c29.789,0,59.547,7.633,86.247,23.047c50.849,29.359,81.132,82.961,84.097,141.199
			h-22.34H183.99H13.678c2.966-58.24,33.215-111.842,84.065-141.199C124.443,1073.501,154.2,1065.868,183.99,1065.868z"/>
		<path style="fill:#3CDEF6;" d="M183.991,1076.329c27.92,0,55.809,7.152,80.833,21.598c47.658,27.518,76.039,77.754,78.818,132.336
			h-20.938H183.991H24.369c2.779-54.582,31.13-104.818,78.788-132.336C128.182,1083.479,156.071,1076.329,183.991,1076.329
			L183.991,1076.329z"/>
	</g>
	<g>
		<path style="fill:#FFFFFF;" d="M127.99,1123.981c0,4.418-3.582,8-8,8h0c-4.418,0-8-3.582-8-8l0,0c0-4.418,3.582-8,8-8h0
			C124.408,1115.981,127.99,1119.563,127.99,1123.981L127.99,1123.981z"/>
		<path style="fill:#FFFFFF;" d="M255.99,1123.981c0,4.418-3.582,8-8,8c-4.418,0-8-3.582-8-8l0,0c0-4.418,3.582-8,8-8h0
			C252.408,1115.981,255.99,1119.563,255.99,1123.981z"/>
	</g>
	<g shape-rendering="auto" image-rendering="auto" color-rendering="auto" color-interpolation="sRGB">
		<g>
			<g>
				<path style="fill:#5A3392;" d="M119.033,1235.978c-4.116,0.473-7.191,4.008-7.087,8.15v23.977
					c0.012,0.887,0.171,1.766,0.472,2.6l15.945,47.836c0.23,0.67,0.548,1.307,0.945,1.893l32.008,47.834
					c0.367,0.564,0.803,1.08,1.299,1.535l70.512,64.135c1.497,1.324,3.435,2.041,5.433,2.008l153.425-0.367
					c3.037,0.027,5.828-1.666,7.205-4.373l32.008-63.779c1.974-3.953,0.369-8.758-3.585-10.732c-1.124-0.561-2.364-0.85-3.62-0.842
					l-251.693,0.16l-29.055-43.582l-15.236-45.59v-22.678c0.116-4.418-3.371-8.092-7.788-8.207
					c-0.397-0.012-0.794,0.008-1.188,0.057L119.033,1235.978z M411.002,1371.806l-23.976,47.836l-145.394,0.367l-52.795-47.953
					l222.165-0.24L411.002,1371.806z"/>
				<path style="fill:#5A3392;" d="M224.034,1235.978v33.307l15.945,47.244v115.395h16.063v-118.111l-16.063-47.127v-30.709h-15.945
					V1235.978z"/>
				<path style="fill:#5A3392;" d="M368.01,1359.993v71.93h15.945v-71.93H368.01z"/>
				<path style="fill:#5A3392;" d="M303.994,1359.993v71.93h15.945v-71.93H303.994z"/>
			</g>
			<path style="fill:#5A3392;" d="M119.978,1163.931c-4.419-0.018-8.014,3.551-8.031,7.971c0,0.02,0,0.041,0,0.061v32.006
				c-0.017,4.418,3.552,8.014,7.97,8.031c0.02,0,0.041,0,0.061,0H248.01c4.419,0.018,8.014-3.551,8.031-7.971
				c0-0.02,0-0.041,0-0.061v-32.006c0.017-4.418-3.552-8.014-7.97-8.031c-0.02,0-0.041,0-0.061,0H119.978L119.978,1163.931z"/>
		</g>
		<path style="fill:#FFFFFF;" d="M128.01,1179.993h111.968v15.945H128.01V1179.993z"/>
		<g>
			<path style="fill:#5A3392;" d="M136.041,1308.026v15.945H248.01v-15.945H136.041z"/>
			<path style="fill:#5A3392;" d="M119.978,1259.956v16.063h111.969v-16.063H119.978L119.978,1259.956z"/>
		</g>
		<path style="fill:#EBFEFF;" d="M128.01,1179.993h56v15.945h-56V1179.993z"/>
		<g>
			<path style="fill:#5A3392;" d="M8.626,1227.978c-4.418-0.063-8.051,3.469-8.113,7.887s3.469,8.051,7.887,8.113
				c0.075,0.002,0.151,0.002,0.226,0h430.469c4.418,0.063,8.051-3.469,8.113-7.887c0.062-4.418-3.469-8.051-7.887-8.113
				c-0.075-0.002-0.151-0.002-0.226,0H8.626z"/>
			<path style="fill:#5A3392;" d="M8.094,1244.071c4.407-0.066,7.93-3.686,7.875-8.094c0-65.873,38.451-125.648,98.406-152.938
				s130.294-17.014,179.969,26.25c3.331,2.9,8.382,2.549,11.281-0.781s2.55-8.381-0.781-11.281
				c-54.371-47.354-131.471-58.587-197.094-28.719c-65.623,29.869-107.75,95.367-107.75,167.469
				c-0.055,4.414,3.479,8.039,7.894,8.094C7.961,1244.071,8.028,1244.071,8.094,1244.071z"/>
			<path style="fill:#5A3392;" d="M360.126,1244.071c4.407-0.066,7.93-3.686,7.875-8.094c0-21.002-3.621-41.867-10.656-61.656
				c-1.484-4.16-6.059-6.328-10.219-4.844s-6.328,6.059-4.844,10.219l0,0c6.424,18.068,9.719,37.104,9.719,56.281
				c-0.055,4.414,3.479,8.039,7.894,8.094C359.971,1244.073,360.048,1244.073,360.126,1244.071z"/>
			<path style="fill:#5A3392;" d="M341.032,1164.759c4.415,0.07,8.051-3.449,8.122-7.865c0.021-1.328-0.289-2.643-0.904-3.822
				c-6.747-13.365-15.101-25.877-24.875-37.217c-2.882-3.348-7.933-3.727-11.281-0.844s-3.726,7.934-0.844,11.281
				c8.925,10.357,16.558,21.766,22.719,33.969c1.317,2.711,4.048,4.451,7.063,4.5V1164.759z"/>
		</g>
	</g>
</g>
</svg>